<svg xmlns="http://www.w3.org/2000/svg" viewBox="0 0 36 36"><path fill="#EF9645" d="M21.879,20.133l-1.25,-4.983l-2.867,-6.404c-0.365,-0.942 0.104,-2.002 1.046,-2.366c0.942,-0.368 2.002,0.104 2.367,1.046l4.506,11.455l-3.802,1.252Z"/><path fill="#FFDC5D" d="M27.944,18.326c-0.354,-1.875 -1.444,-4.738 -1.444,-4.738l-4.204,-7.62c-0.454,-0.902 -1.556,-1.264 -2.457,-0.81c-0.902,0.455 -1.265,1.555 -0.81,2.458l3.872,6.935c0.009,0.016 1.026,3.988 1.026,3.988c-0.783,-0.722 -1.894,-1.713 -2.916,-2.628c-2.251,-2.013 -3.586,-2.768 -3.586,-2.768c-0.516,-0.322 -0.856,-0.368 -1.549,-0.043l-4.265,1.866c-0.114,0.056 -0.211,0.136 -0.287,0.239l-1.68,2.241c-0.649,0.775 -0.547,1.929 0.229,2.577c0.774,0.649 1.927,0.545 2.577,-0.228c0.035,-0.042 1.293,-1.86 1.406,-1.918c0.753,-0.387 2.154,-1.051 2.766,-1.032c0.652,0.022 4.563,4.328 4.563,4.328c0.15,0.188 0.167,0.449 0.044,0.655l-2.118,3.798c-0.057,0.095 -0.14,0.171 -0.24,0.22l-1.942,1.089c-0.112,0.055 -0.238,0.072 -0.36,0.049l-3.829,-1.65c-0.19,-0.082 -0.348,-0.233 -0.43,-0.424c-0.571,-1.344 -0.652,-2.629 -0.653,-2.643c-0.047,-1.01 -0.903,-1.789 -1.913,-1.742c-1.008,0.04 -1.789,0.903 -1.742,1.912c0.009,0.191 0.255,4.097 3.434,6.75c1.836,1.532 4.107,2.124 7.009,1.734c3.35,-0.449 5.426,-0.895 8.358,-6.943c0.811,-1.674 1.382,-4.376 1.141,-5.652Z"/></svg>